<svg xmlns="http://www.w3.org/2000/svg" xmlns:xlink="http://www.w3.org/1999/xlink" width="500" zoomAndPan="magnify" viewBox="0 0 375 374.999991" height="500" preserveAspectRatio="xMidYMid meet" version="1.0"><defs><g/></defs><g fill="#ff0000" fill-opacity="1"><g transform="translate(-1.179106, 223.309306)"><g><path d="M 40.40625 -23.140625 C 41.90625 -23.796875 43.671875 -24.125 45.703125 -24.125 C 47.734375 -24.125 49.421875 -23.96875 50.765625 -23.65625 C 52.109375 -23.351562 53.625 -22.953125 55.3125 -22.453125 C 60.457031 -20.804688 64.085938 -19.597656 66.203125 -18.828125 L 76.96875 -14.96875 C 80.070312 -13.851562 81.859375 -13.296875 82.328125 -13.296875 C 84.742188 -13.296875 87.390625 -13.992188 90.265625 -15.390625 C 93.140625 -16.796875 95.71875 -18.285156 98 -19.859375 C 100.289062 -21.429688 101.859375 -22.351562 102.703125 -22.625 C 103.546875 -22.894531 104.425781 -23.03125 105.34375 -23.03125 C 106.269531 -23.03125 107.066406 -22.734375 107.734375 -22.140625 C 108.410156 -21.546875 108.691406 -20.703125 108.578125 -19.609375 C 108.460938 -18.515625 108.144531 -17.351562 107.625 -16.125 C 107.101562 -14.894531 106.441406 -13.625 105.640625 -12.3125 C 103.910156 -9.59375 102.222656 -7.484375 100.578125 -5.984375 L 95.390625 -1.546875 C 88.253906 4.429688 80.734375 7.421875 72.828125 7.421875 C 70.671875 7.421875 67.082031 6.617188 62.0625 5.015625 L 44.265625 -0.75 C 36.628906 -3.28125 31.707031 -4.546875 29.5 -4.546875 C 27.289062 -4.546875 25.128906 -4.191406 23.015625 -3.484375 C 20.910156 -2.773438 18.78125 -2.003906 16.625 -1.171875 C 14.476562 -0.347656 12.28125 0.414062 10.03125 1.125 C 7.789062 1.832031 5.832031 2.1875 4.15625 2.1875 C 2.488281 2.1875 1.242188 1.945312 0.421875 1.46875 C -0.398438 0.988281 -1.140625 0.363281 -1.796875 -0.40625 C -3.441406 -2.25 -4.1875 -3.890625 -4.03125 -5.328125 C -3.882812 -6.765625 -3.269531 -8.132812 -2.1875 -9.4375 C -1.113281 -10.75 0.207031 -12.070312 1.78125 -13.40625 C 3.351562 -14.75 5.066406 -16.082031 6.921875 -17.40625 C 8.785156 -18.738281 10.582031 -19.960938 12.3125 -21.078125 L 19.734375 -25.671875 C 20.234375 -25.984375 21.3125 -26.675781 22.96875 -27.75 L 53.125 -48.359375 C 62.457031 -54.960938 67.125 -58.414062 67.125 -58.71875 C 67.125 -58.988281 66.394531 -59.125 64.9375 -59.125 C 59.488281 -59.125 54.851562 -59.125 51.03125 -59.125 C 47.207031 -59.125 44.203125 -59.101562 42.015625 -59.0625 L 35.75 -59.0625 C 28.800781 -58.988281 24.882812 -58.785156 24 -58.453125 C 23.113281 -58.128906 22.078125 -57.53125 20.890625 -56.65625 L 17.203125 -54.109375 C 14.210938 -52.078125 11.71875 -51.0625 9.71875 -51.0625 C 7.226562 -51.0625 5.632812 -52.078125 4.9375 -54.109375 C 4.289062 -56.035156 4.597656 -57.867188 5.859375 -59.609375 C 7.128906 -61.359375 8.484375 -62.894531 9.921875 -64.21875 C 11.359375 -65.539062 12.96875 -66.816406 14.75 -68.046875 C 16.539062 -69.273438 18.316406 -70.347656 20.078125 -71.265625 C 23.992188 -73.335938 26.851562 -74.375 28.65625 -74.375 C 30.46875 -74.375 32.609375 -74.429688 35.078125 -74.546875 C 37.554688 -74.671875 40.359375 -74.816406 43.484375 -74.984375 C 46.617188 -75.160156 49.988281 -75.382812 53.59375 -75.65625 L 64.421875 -76.34375 C 68.066406 -76.570312 71.613281 -76.8125 75.0625 -77.0625 C 78.519531 -77.3125 81.6875 -77.53125 84.5625 -77.71875 L 92.046875 -78.125 C 94.117188 -78.238281 95.488281 -78.296875 96.15625 -78.296875 C 96.832031 -78.296875 97.617188 -77.96875 98.515625 -77.3125 C 99.421875 -76.664062 100.296875 -75.804688 101.140625 -74.734375 C 103.367188 -71.929688 104.347656 -69.203125 104.078125 -66.546875 C 103.890625 -64.359375 98.113281 -59.445312 86.75 -51.8125 L 76.390625 -45.015625 L 55.203125 -31.890625 Z M 40.40625 -23.140625 "/></g></g></g><g fill="#ff0000" fill-opacity="1"><g transform="translate(104.179067, 223.309306)"><g><path d="M 14.796875 3.859375 C 12.796875 3.859375 10.90625 3.382812 9.125 2.4375 C 7.34375 1.5 5.722656 0.171875 4.265625 -1.546875 C 0.992188 -5.503906 -0.640625 -10.25 -0.640625 -15.78125 C -0.640625 -18.039062 0.25 -20.3125 2.03125 -22.59375 C 3.820312 -24.875 6.753906 -26.9375 10.828125 -28.78125 C 19.960938 -32.894531 33.296875 -34.953125 50.828125 -34.953125 C 50.828125 -34.953125 66.890625 -47.40625 99.015625 -72.3125 C 100.628906 -73.570312 101.59375 -74.335938 101.90625 -74.609375 C 102.40625 -75.148438 103.046875 -75.421875 103.828125 -75.421875 C 104.617188 -75.421875 105.382812 -75.34375 106.125 -75.1875 C 106.875 -75.03125 107.554688 -74.820312 108.171875 -74.5625 C 109.515625 -73.976562 110.1875 -73.304688 110.1875 -72.546875 C 110.1875 -72.003906 110.050781 -71.578125 109.78125 -71.265625 L 76.859375 -35.125 L 90.90625 -35.125 C 91.519531 -36.5 92.535156 -38.414062 93.953125 -40.875 L 99.25 -49.515625 C 101.320312 -52.816406 103.359375 -55.925781 105.359375 -58.84375 L 111.171875 -66.890625 C 117.117188 -74.835938 121.414062 -78.8125 124.0625 -78.8125 C 124.332031 -78.8125 125.378906 -78.457031 127.203125 -77.75 C 129.023438 -77.039062 130.570312 -76.34375 131.84375 -75.65625 C 134.90625 -74.039062 136.4375 -72.519531 136.4375 -71.09375 C 136.4375 -69.75 135.84375 -68.335938 134.65625 -66.859375 C 133.46875 -65.390625 132.210938 -63.65625 130.890625 -61.65625 C 129.566406 -59.664062 128.144531 -57.410156 126.625 -54.890625 C 125.113281 -52.378906 123.585938 -49.710938 122.046875 -46.890625 C 120.515625 -44.066406 119.132812 -41.332031 117.90625 -38.6875 C 115.101562 -32.664062 113.703125 -28.585938 113.703125 -26.453125 C 113.703125 -24.328125 113.863281 -22.78125 114.1875 -21.8125 C 114.519531 -20.851562 114.914062 -20.144531 115.375 -19.6875 C 116.101562 -18.957031 117.269531 -18.59375 118.875 -18.59375 C 120.488281 -18.59375 122.128906 -18.890625 123.796875 -19.484375 C 125.472656 -20.078125 127.109375 -20.828125 128.703125 -21.734375 C 130.296875 -22.640625 131.859375 -23.617188 133.390625 -24.671875 C 134.929688 -25.722656 136.429688 -26.710938 137.890625 -27.640625 C 141.265625 -29.710938 143.753906 -30.75 145.359375 -30.75 C 146.972656 -30.75 148.054688 -30.375 148.609375 -29.625 C 149.171875 -28.875 149.453125 -27.898438 149.453125 -26.703125 C 149.453125 -25.515625 148.953125 -23.914062 147.953125 -21.90625 C 146.960938 -19.894531 145.5625 -17.8125 143.75 -15.65625 C 141.945312 -13.507812 139.816406 -11.390625 137.359375 -9.296875 C 134.910156 -7.203125 132.226562 -5.332031 129.3125 -3.6875 C 122.738281 -0.0390625 116.304688 1.78125 110.015625 1.78125 C 104.335938 1.78125 99.332031 -0.210938 95 -4.203125 C 90.15625 -8.617188 87.734375 -14.316406 87.734375 -21.296875 C 87.734375 -21.640625 87.734375 -21.984375 87.734375 -22.328125 C 87.734375 -22.679688 87.753906 -23.050781 87.796875 -23.4375 L 63.671875 -20.375 C 56.878906 -13.695312 48.664062 -7.976562 39.03125 -3.21875 C 29.363281 1.5 21.285156 3.859375 14.796875 3.859375 Z M 14.796875 3.859375 "/></g></g></g><g fill="#ff0000" fill-opacity="1"><g transform="translate(248.6859, 223.309306)"><g><path d="M 15.421875 -11.578125 C 15.421875 -13.066406 15.898438 -14.722656 16.859375 -16.546875 C 17.828125 -18.367188 19 -20.453125 20.375 -22.796875 L 30.515625 -39.203125 C 30.515625 -39.203125 34.296875 -45.054688 41.859375 -56.765625 C 32.953125 -54.421875 25.5625 -51.523438 19.6875 -48.078125 C 17.65625 -46.878906 15.96875 -45.648438 14.625 -44.390625 C 12.09375 -42.429688 10.039062 -41.453125 8.46875 -41.453125 C 5.582031 -41.453125 4.140625 -42.738281 4.140625 -45.3125 C 4.140625 -46.457031 4.359375 -47.488281 4.796875 -48.40625 C 5.242188 -49.332031 5.820312 -50.425781 6.53125 -51.6875 C 7.238281 -52.957031 8.0625 -54.347656 9 -55.859375 C 9.945312 -57.378906 10.992188 -58.957031 12.140625 -60.59375 C 13.296875 -62.226562 14.523438 -63.789062 15.828125 -65.28125 C 18.742188 -68.695312 21.257812 -70.90625 23.375 -71.90625 C 25.488281 -72.90625 27.78125 -73.78125 30.25 -74.53125 C 32.726562 -75.28125 35.632812 -75.957031 38.96875 -76.5625 C 46.6875 -77.988281 55.054688 -78.703125 64.078125 -78.703125 C 83.609375 -78.703125 98.960938 -75.878906 110.140625 -70.234375 C 119.421875 -65.515625 124.0625 -58.953125 124.0625 -50.546875 C 124.0625 -48.742188 123.800781 -46.578125 123.28125 -44.046875 C 122.769531 -41.515625 121.5625 -38.328125 119.65625 -34.484375 C 117.757812 -30.648438 115.179688 -26.945312 111.921875 -23.375 C 108.660156 -19.800781 104.695312 -16.453125 100.03125 -13.328125 C 95.363281 -10.203125 89.921875 -7.46875 83.703125 -5.125 C 70.429688 -0.09375 54.734375 2.421875 36.609375 2.421875 C 29.546875 2.421875 24.078125 0.847656 20.203125 -2.296875 C 17.015625 -4.835938 15.421875 -7.929688 15.421875 -11.578125 Z M 47.890625 -34.421875 C 46.398438 -31.160156 45.40625 -28.828125 44.90625 -27.421875 C 44.40625 -26.023438 44.15625 -24.921875 44.15625 -24.109375 C 44.15625 -23.304688 44.394531 -22.492188 44.875 -21.671875 C 45.351562 -20.847656 46.070312 -20.109375 47.03125 -19.453125 C 49.21875 -18.035156 52.460938 -17.328125 56.765625 -17.328125 C 61.066406 -17.328125 65.472656 -17.671875 69.984375 -18.359375 C 74.492188 -19.054688 78.628906 -19.976562 82.390625 -21.125 C 86.148438 -22.28125 89.503906 -23.59375 92.453125 -25.0625 C 95.410156 -26.539062 97.945312 -28.050781 100.0625 -29.59375 C 104.28125 -32.78125 106.640625 -35.71875 107.140625 -38.40625 C 107.253906 -39.019531 107.3125 -39.671875 107.3125 -40.359375 C 107.3125 -48.222656 98.90625 -53.804688 82.09375 -57.109375 C 75.644531 -58.410156 68.679688 -59.140625 61.203125 -59.296875 C 53.828125 -45.984375 49.390625 -37.691406 47.890625 -34.421875 Z M 47.890625 -34.421875 "/></g></g></g><g fill="#00ffff" fill-opacity="1"><g transform="translate(-1.179106, 223.456699)"><g><path d="M 40.40625 -23.140625 C 41.90625 -23.796875 43.671875 -24.125 45.703125 -24.125 C 47.734375 -24.125 49.421875 -23.96875 50.765625 -23.65625 C 52.109375 -23.351562 53.625 -22.953125 55.3125 -22.453125 C 60.457031 -20.804688 64.085938 -19.597656 66.203125 -18.828125 L 76.96875 -14.96875 C 80.070312 -13.851562 81.859375 -13.296875 82.328125 -13.296875 C 84.742188 -13.296875 87.390625 -13.992188 90.265625 -15.390625 C 93.140625 -16.796875 95.71875 -18.285156 98 -19.859375 C 100.289062 -21.429688 101.859375 -22.351562 102.703125 -22.625 C 103.546875 -22.894531 104.425781 -23.03125 105.34375 -23.03125 C 106.269531 -23.03125 107.066406 -22.734375 107.734375 -22.140625 C 108.410156 -21.546875 108.691406 -20.703125 108.578125 -19.609375 C 108.460938 -18.515625 108.144531 -17.351562 107.625 -16.125 C 107.101562 -14.894531 106.441406 -13.625 105.640625 -12.3125 C 103.910156 -9.59375 102.222656 -7.484375 100.578125 -5.984375 L 95.390625 -1.546875 C 88.253906 4.429688 80.734375 7.421875 72.828125 7.421875 C 70.671875 7.421875 67.082031 6.617188 62.0625 5.015625 L 44.265625 -0.75 C 36.628906 -3.28125 31.707031 -4.546875 29.5 -4.546875 C 27.289062 -4.546875 25.128906 -4.191406 23.015625 -3.484375 C 20.910156 -2.773438 18.78125 -2.003906 16.625 -1.171875 C 14.476562 -0.347656 12.28125 0.414062 10.03125 1.125 C 7.789062 1.832031 5.832031 2.1875 4.15625 2.1875 C 2.488281 2.1875 1.242188 1.945312 0.421875 1.46875 C -0.398438 0.988281 -1.140625 0.363281 -1.796875 -0.40625 C -3.441406 -2.25 -4.1875 -3.890625 -4.03125 -5.328125 C -3.882812 -6.765625 -3.269531 -8.132812 -2.1875 -9.4375 C -1.113281 -10.75 0.207031 -12.070312 1.78125 -13.40625 C 3.351562 -14.75 5.066406 -16.082031 6.921875 -17.40625 C 8.785156 -18.738281 10.582031 -19.960938 12.3125 -21.078125 L 19.734375 -25.671875 C 20.234375 -25.984375 21.3125 -26.675781 22.96875 -27.75 L 53.125 -48.359375 C 62.457031 -54.960938 67.125 -58.414062 67.125 -58.71875 C 67.125 -58.988281 66.394531 -59.125 64.9375 -59.125 C 59.488281 -59.125 54.851562 -59.125 51.03125 -59.125 C 47.207031 -59.125 44.203125 -59.101562 42.015625 -59.0625 L 35.75 -59.0625 C 28.800781 -58.988281 24.882812 -58.785156 24 -58.453125 C 23.113281 -58.128906 22.078125 -57.53125 20.890625 -56.65625 L 17.203125 -54.109375 C 14.210938 -52.078125 11.71875 -51.0625 9.71875 -51.0625 C 7.226562 -51.0625 5.632812 -52.078125 4.9375 -54.109375 C 4.289062 -56.035156 4.597656 -57.867188 5.859375 -59.609375 C 7.128906 -61.359375 8.484375 -62.894531 9.921875 -64.21875 C 11.359375 -65.539062 12.96875 -66.816406 14.75 -68.046875 C 16.539062 -69.273438 18.316406 -70.347656 20.078125 -71.265625 C 23.992188 -73.335938 26.851562 -74.375 28.65625 -74.375 C 30.46875 -74.375 32.609375 -74.429688 35.078125 -74.546875 C 37.554688 -74.671875 40.359375 -74.816406 43.484375 -74.984375 C 46.617188 -75.160156 49.988281 -75.382812 53.59375 -75.65625 L 64.421875 -76.34375 C 68.066406 -76.570312 71.613281 -76.8125 75.0625 -77.0625 C 78.519531 -77.3125 81.6875 -77.53125 84.5625 -77.71875 L 92.046875 -78.125 C 94.117188 -78.238281 95.488281 -78.296875 96.15625 -78.296875 C 96.832031 -78.296875 97.617188 -77.96875 98.515625 -77.3125 C 99.421875 -76.664062 100.296875 -75.804688 101.140625 -74.734375 C 103.367188 -71.929688 104.347656 -69.203125 104.078125 -66.546875 C 103.890625 -64.359375 98.113281 -59.445312 86.75 -51.8125 L 76.390625 -45.015625 L 55.203125 -31.890625 Z M 40.40625 -23.140625 "/></g></g></g><g fill="#00ffff" fill-opacity="1"><g transform="translate(104.179067, 223.456699)"><g><path d="M 14.796875 3.859375 C 12.796875 3.859375 10.90625 3.382812 9.125 2.4375 C 7.34375 1.5 5.722656 0.171875 4.265625 -1.546875 C 0.992188 -5.503906 -0.640625 -10.25 -0.640625 -15.78125 C -0.640625 -18.039062 0.25 -20.3125 2.03125 -22.59375 C 3.820312 -24.875 6.753906 -26.9375 10.828125 -28.78125 C 19.960938 -32.894531 33.296875 -34.953125 50.828125 -34.953125 C 50.828125 -34.953125 66.890625 -47.40625 99.015625 -72.3125 C 100.628906 -73.570312 101.59375 -74.335938 101.90625 -74.609375 C 102.40625 -75.148438 103.046875 -75.421875 103.828125 -75.421875 C 104.617188 -75.421875 105.382812 -75.34375 106.125 -75.1875 C 106.875 -75.03125 107.554688 -74.820312 108.171875 -74.5625 C 109.515625 -73.976562 110.1875 -73.304688 110.1875 -72.546875 C 110.1875 -72.003906 110.050781 -71.578125 109.78125 -71.265625 L 76.859375 -35.125 L 90.90625 -35.125 C 91.519531 -36.5 92.535156 -38.414062 93.953125 -40.875 L 99.25 -49.515625 C 101.320312 -52.816406 103.359375 -55.925781 105.359375 -58.84375 L 111.171875 -66.890625 C 117.117188 -74.835938 121.414062 -78.8125 124.0625 -78.8125 C 124.332031 -78.8125 125.378906 -78.457031 127.203125 -77.75 C 129.023438 -77.039062 130.570312 -76.34375 131.84375 -75.65625 C 134.90625 -74.039062 136.4375 -72.519531 136.4375 -71.09375 C 136.4375 -69.75 135.84375 -68.335938 134.65625 -66.859375 C 133.46875 -65.390625 132.210938 -63.65625 130.890625 -61.65625 C 129.566406 -59.664062 128.144531 -57.410156 126.625 -54.890625 C 125.113281 -52.378906 123.585938 -49.710938 122.046875 -46.890625 C 120.515625 -44.066406 119.132812 -41.332031 117.90625 -38.6875 C 115.101562 -32.664062 113.703125 -28.585938 113.703125 -26.453125 C 113.703125 -24.328125 113.863281 -22.78125 114.1875 -21.8125 C 114.519531 -20.851562 114.914062 -20.144531 115.375 -19.6875 C 116.101562 -18.957031 117.269531 -18.59375 118.875 -18.59375 C 120.488281 -18.59375 122.128906 -18.890625 123.796875 -19.484375 C 125.472656 -20.078125 127.109375 -20.828125 128.703125 -21.734375 C 130.296875 -22.640625 131.859375 -23.617188 133.390625 -24.671875 C 134.929688 -25.722656 136.429688 -26.710938 137.890625 -27.640625 C 141.265625 -29.710938 143.753906 -30.75 145.359375 -30.75 C 146.972656 -30.75 148.054688 -30.375 148.609375 -29.625 C 149.171875 -28.875 149.453125 -27.898438 149.453125 -26.703125 C 149.453125 -25.515625 148.953125 -23.914062 147.953125 -21.90625 C 146.960938 -19.894531 145.5625 -17.8125 143.75 -15.65625 C 141.945312 -13.507812 139.816406 -11.390625 137.359375 -9.296875 C 134.910156 -7.203125 132.226562 -5.332031 129.3125 -3.6875 C 122.738281 -0.0390625 116.304688 1.78125 110.015625 1.78125 C 104.335938 1.78125 99.332031 -0.210938 95 -4.203125 C 90.15625 -8.617188 87.734375 -14.316406 87.734375 -21.296875 C 87.734375 -21.640625 87.734375 -21.984375 87.734375 -22.328125 C 87.734375 -22.679688 87.753906 -23.050781 87.796875 -23.4375 L 63.671875 -20.375 C 56.878906 -13.695312 48.664062 -7.976562 39.03125 -3.21875 C 29.363281 1.5 21.285156 3.859375 14.796875 3.859375 Z M 14.796875 3.859375 "/></g></g></g><g fill="#00ffff" fill-opacity="1"><g transform="translate(248.6859, 223.456699)"><g><path d="M 15.421875 -11.578125 C 15.421875 -13.066406 15.898438 -14.722656 16.859375 -16.546875 C 17.828125 -18.367188 19 -20.453125 20.375 -22.796875 L 30.515625 -39.203125 C 30.515625 -39.203125 34.296875 -45.054688 41.859375 -56.765625 C 32.953125 -54.421875 25.5625 -51.523438 19.6875 -48.078125 C 17.65625 -46.878906 15.96875 -45.648438 14.625 -44.390625 C 12.09375 -42.429688 10.039062 -41.453125 8.46875 -41.453125 C 5.582031 -41.453125 4.140625 -42.738281 4.140625 -45.3125 C 4.140625 -46.457031 4.359375 -47.488281 4.796875 -48.40625 C 5.242188 -49.332031 5.820312 -50.425781 6.53125 -51.6875 C 7.238281 -52.957031 8.0625 -54.347656 9 -55.859375 C 9.945312 -57.378906 10.992188 -58.957031 12.140625 -60.59375 C 13.296875 -62.226562 14.523438 -63.789062 15.828125 -65.28125 C 18.742188 -68.695312 21.257812 -70.90625 23.375 -71.90625 C 25.488281 -72.90625 27.78125 -73.78125 30.25 -74.53125 C 32.726562 -75.28125 35.632812 -75.957031 38.96875 -76.5625 C 46.6875 -77.988281 55.054688 -78.703125 64.078125 -78.703125 C 83.609375 -78.703125 98.960938 -75.878906 110.140625 -70.234375 C 119.421875 -65.515625 124.0625 -58.953125 124.0625 -50.546875 C 124.0625 -48.742188 123.800781 -46.578125 123.28125 -44.046875 C 122.769531 -41.515625 121.5625 -38.328125 119.65625 -34.484375 C 117.757812 -30.648438 115.179688 -26.945312 111.921875 -23.375 C 108.660156 -19.800781 104.695312 -16.453125 100.03125 -13.328125 C 95.363281 -10.203125 89.921875 -7.46875 83.703125 -5.125 C 70.429688 -0.09375 54.734375 2.421875 36.609375 2.421875 C 29.546875 2.421875 24.078125 0.847656 20.203125 -2.296875 C 17.015625 -4.835938 15.421875 -7.929688 15.421875 -11.578125 Z M 47.890625 -34.421875 C 46.398438 -31.160156 45.40625 -28.828125 44.90625 -27.421875 C 44.40625 -26.023438 44.15625 -24.921875 44.15625 -24.109375 C 44.15625 -23.304688 44.394531 -22.492188 44.875 -21.671875 C 45.351562 -20.847656 46.070312 -20.109375 47.03125 -19.453125 C 49.21875 -18.035156 52.460938 -17.328125 56.765625 -17.328125 C 61.066406 -17.328125 65.472656 -17.671875 69.984375 -18.359375 C 74.492188 -19.054688 78.628906 -19.976562 82.390625 -21.125 C 86.148438 -22.28125 89.503906 -23.59375 92.453125 -25.0625 C 95.410156 -26.539062 97.945312 -28.050781 100.0625 -29.59375 C 104.28125 -32.78125 106.640625 -35.71875 107.140625 -38.40625 C 107.253906 -39.019531 107.3125 -39.671875 107.3125 -40.359375 C 107.3125 -48.222656 98.90625 -53.804688 82.09375 -57.109375 C 75.644531 -58.410156 68.679688 -59.140625 61.203125 -59.296875 C 53.828125 -45.984375 49.390625 -37.691406 47.890625 -34.421875 Z M 47.890625 -34.421875 "/></g></g></g><g fill="#000000" fill-opacity="1"><g transform="translate(-1.179106, 223.383002)"><g><path d="M 40.40625 -23.140625 C 41.90625 -23.796875 43.671875 -24.125 45.703125 -24.125 C 47.734375 -24.125 49.421875 -23.96875 50.765625 -23.65625 C 52.109375 -23.351562 53.625 -22.953125 55.3125 -22.453125 C 60.457031 -20.804688 64.085938 -19.597656 66.203125 -18.828125 L 76.96875 -14.96875 C 80.070312 -13.851562 81.859375 -13.296875 82.328125 -13.296875 C 84.742188 -13.296875 87.390625 -13.992188 90.265625 -15.390625 C 93.140625 -16.796875 95.71875 -18.285156 98 -19.859375 C 100.289062 -21.429688 101.859375 -22.351562 102.703125 -22.625 C 103.546875 -22.894531 104.425781 -23.03125 105.34375 -23.03125 C 106.269531 -23.03125 107.066406 -22.734375 107.734375 -22.140625 C 108.410156 -21.546875 108.691406 -20.703125 108.578125 -19.609375 C 108.460938 -18.515625 108.144531 -17.351562 107.625 -16.125 C 107.101562 -14.894531 106.441406 -13.625 105.640625 -12.3125 C 103.910156 -9.59375 102.222656 -7.484375 100.578125 -5.984375 L 95.390625 -1.546875 C 88.253906 4.429688 80.734375 7.421875 72.828125 7.421875 C 70.671875 7.421875 67.082031 6.617188 62.0625 5.015625 L 44.265625 -0.75 C 36.628906 -3.28125 31.707031 -4.546875 29.5 -4.546875 C 27.289062 -4.546875 25.128906 -4.191406 23.015625 -3.484375 C 20.910156 -2.773438 18.78125 -2.003906 16.625 -1.171875 C 14.476562 -0.347656 12.28125 0.414062 10.03125 1.125 C 7.789062 1.832031 5.832031 2.1875 4.15625 2.1875 C 2.488281 2.1875 1.242188 1.945312 0.421875 1.46875 C -0.398438 0.988281 -1.140625 0.363281 -1.796875 -0.40625 C -3.441406 -2.25 -4.1875 -3.890625 -4.03125 -5.328125 C -3.882812 -6.765625 -3.269531 -8.132812 -2.1875 -9.4375 C -1.113281 -10.75 0.207031 -12.070312 1.78125 -13.40625 C 3.351562 -14.75 5.066406 -16.082031 6.921875 -17.40625 C 8.785156 -18.738281 10.582031 -19.960938 12.3125 -21.078125 L 19.734375 -25.671875 C 20.234375 -25.984375 21.3125 -26.675781 22.96875 -27.75 L 53.125 -48.359375 C 62.457031 -54.960938 67.125 -58.414062 67.125 -58.71875 C 67.125 -58.988281 66.394531 -59.125 64.9375 -59.125 C 59.488281 -59.125 54.851562 -59.125 51.03125 -59.125 C 47.207031 -59.125 44.203125 -59.101562 42.015625 -59.0625 L 35.75 -59.0625 C 28.800781 -58.988281 24.882812 -58.785156 24 -58.453125 C 23.113281 -58.128906 22.078125 -57.53125 20.890625 -56.65625 L 17.203125 -54.109375 C 14.210938 -52.078125 11.71875 -51.0625 9.71875 -51.0625 C 7.226562 -51.0625 5.632812 -52.078125 4.9375 -54.109375 C 4.289062 -56.035156 4.597656 -57.867188 5.859375 -59.609375 C 7.128906 -61.359375 8.484375 -62.894531 9.921875 -64.21875 C 11.359375 -65.539062 12.96875 -66.816406 14.75 -68.046875 C 16.539062 -69.273438 18.316406 -70.347656 20.078125 -71.265625 C 23.992188 -73.335938 26.851562 -74.375 28.65625 -74.375 C 30.46875 -74.375 32.609375 -74.429688 35.078125 -74.546875 C 37.554688 -74.671875 40.359375 -74.816406 43.484375 -74.984375 C 46.617188 -75.160156 49.988281 -75.382812 53.59375 -75.65625 L 64.421875 -76.34375 C 68.066406 -76.570312 71.613281 -76.8125 75.0625 -77.0625 C 78.519531 -77.3125 81.6875 -77.53125 84.5625 -77.71875 L 92.046875 -78.125 C 94.117188 -78.238281 95.488281 -78.296875 96.15625 -78.296875 C 96.832031 -78.296875 97.617188 -77.96875 98.515625 -77.3125 C 99.421875 -76.664062 100.296875 -75.804688 101.140625 -74.734375 C 103.367188 -71.929688 104.347656 -69.203125 104.078125 -66.546875 C 103.890625 -64.359375 98.113281 -59.445312 86.75 -51.8125 L 76.390625 -45.015625 L 55.203125 -31.890625 Z M 40.40625 -23.140625 "/></g></g></g><g fill="#000000" fill-opacity="1"><g transform="translate(104.179067, 223.383002)"><g><path d="M 14.796875 3.859375 C 12.796875 3.859375 10.90625 3.382812 9.125 2.4375 C 7.34375 1.5 5.722656 0.171875 4.265625 -1.546875 C 0.992188 -5.503906 -0.640625 -10.25 -0.640625 -15.78125 C -0.640625 -18.039062 0.25 -20.3125 2.03125 -22.59375 C 3.820312 -24.875 6.753906 -26.9375 10.828125 -28.78125 C 19.960938 -32.894531 33.296875 -34.953125 50.828125 -34.953125 C 50.828125 -34.953125 66.890625 -47.40625 99.015625 -72.3125 C 100.628906 -73.570312 101.59375 -74.335938 101.90625 -74.609375 C 102.40625 -75.148438 103.046875 -75.421875 103.828125 -75.421875 C 104.617188 -75.421875 105.382812 -75.34375 106.125 -75.1875 C 106.875 -75.03125 107.554688 -74.820312 108.171875 -74.5625 C 109.515625 -73.976562 110.1875 -73.304688 110.1875 -72.546875 C 110.1875 -72.003906 110.050781 -71.578125 109.78125 -71.265625 L 76.859375 -35.125 L 90.90625 -35.125 C 91.519531 -36.5 92.535156 -38.414062 93.953125 -40.875 L 99.25 -49.515625 C 101.320312 -52.816406 103.359375 -55.925781 105.359375 -58.84375 L 111.171875 -66.890625 C 117.117188 -74.835938 121.414062 -78.8125 124.0625 -78.8125 C 124.332031 -78.8125 125.378906 -78.457031 127.203125 -77.75 C 129.023438 -77.039062 130.570312 -76.34375 131.84375 -75.65625 C 134.90625 -74.039062 136.4375 -72.519531 136.4375 -71.09375 C 136.4375 -69.75 135.84375 -68.335938 134.65625 -66.859375 C 133.46875 -65.390625 132.210938 -63.65625 130.890625 -61.65625 C 129.566406 -59.664062 128.144531 -57.410156 126.625 -54.890625 C 125.113281 -52.378906 123.585938 -49.710938 122.046875 -46.890625 C 120.515625 -44.066406 119.132812 -41.332031 117.90625 -38.6875 C 115.101562 -32.664062 113.703125 -28.585938 113.703125 -26.453125 C 113.703125 -24.328125 113.863281 -22.78125 114.1875 -21.8125 C 114.519531 -20.851562 114.914062 -20.144531 115.375 -19.6875 C 116.101562 -18.957031 117.269531 -18.59375 118.875 -18.59375 C 120.488281 -18.59375 122.128906 -18.890625 123.796875 -19.484375 C 125.472656 -20.078125 127.109375 -20.828125 128.703125 -21.734375 C 130.296875 -22.640625 131.859375 -23.617188 133.390625 -24.671875 C 134.929688 -25.722656 136.429688 -26.710938 137.890625 -27.640625 C 141.265625 -29.710938 143.753906 -30.75 145.359375 -30.75 C 146.972656 -30.75 148.054688 -30.375 148.609375 -29.625 C 149.171875 -28.875 149.453125 -27.898438 149.453125 -26.703125 C 149.453125 -25.515625 148.953125 -23.914062 147.953125 -21.90625 C 146.960938 -19.894531 145.5625 -17.8125 143.75 -15.65625 C 141.945312 -13.507812 139.816406 -11.390625 137.359375 -9.296875 C 134.910156 -7.203125 132.226562 -5.332031 129.3125 -3.6875 C 122.738281 -0.0390625 116.304688 1.78125 110.015625 1.78125 C 104.335938 1.78125 99.332031 -0.210938 95 -4.203125 C 90.15625 -8.617188 87.734375 -14.316406 87.734375 -21.296875 C 87.734375 -21.640625 87.734375 -21.984375 87.734375 -22.328125 C 87.734375 -22.679688 87.753906 -23.050781 87.796875 -23.4375 L 63.671875 -20.375 C 56.878906 -13.695312 48.664062 -7.976562 39.03125 -3.21875 C 29.363281 1.5 21.285156 3.859375 14.796875 3.859375 Z M 14.796875 3.859375 "/></g></g></g><g fill="#000000" fill-opacity="1"><g transform="translate(248.6859, 223.383002)"><g><path d="M 15.421875 -11.578125 C 15.421875 -13.066406 15.898438 -14.722656 16.859375 -16.546875 C 17.828125 -18.367188 19 -20.453125 20.375 -22.796875 L 30.515625 -39.203125 C 30.515625 -39.203125 34.296875 -45.054688 41.859375 -56.765625 C 32.953125 -54.421875 25.5625 -51.523438 19.6875 -48.078125 C 17.65625 -46.878906 15.96875 -45.648438 14.625 -44.390625 C 12.09375 -42.429688 10.039062 -41.453125 8.46875 -41.453125 C 5.582031 -41.453125 4.140625 -42.738281 4.140625 -45.3125 C 4.140625 -46.457031 4.359375 -47.488281 4.796875 -48.40625 C 5.242188 -49.332031 5.820312 -50.425781 6.53125 -51.6875 C 7.238281 -52.957031 8.0625 -54.347656 9 -55.859375 C 9.945312 -57.378906 10.992188 -58.957031 12.140625 -60.59375 C 13.296875 -62.226562 14.523438 -63.789062 15.828125 -65.28125 C 18.742188 -68.695312 21.257812 -70.90625 23.375 -71.90625 C 25.488281 -72.90625 27.78125 -73.78125 30.25 -74.53125 C 32.726562 -75.28125 35.632812 -75.957031 38.96875 -76.5625 C 46.6875 -77.988281 55.054688 -78.703125 64.078125 -78.703125 C 83.609375 -78.703125 98.960938 -75.878906 110.140625 -70.234375 C 119.421875 -65.515625 124.0625 -58.953125 124.0625 -50.546875 C 124.0625 -48.742188 123.800781 -46.578125 123.28125 -44.046875 C 122.769531 -41.515625 121.5625 -38.328125 119.65625 -34.484375 C 117.757812 -30.648438 115.179688 -26.945312 111.921875 -23.375 C 108.660156 -19.800781 104.695312 -16.453125 100.03125 -13.328125 C 95.363281 -10.203125 89.921875 -7.46875 83.703125 -5.125 C 70.429688 -0.09375 54.734375 2.421875 36.609375 2.421875 C 29.546875 2.421875 24.078125 0.847656 20.203125 -2.296875 C 17.015625 -4.835938 15.421875 -7.929688 15.421875 -11.578125 Z M 47.890625 -34.421875 C 46.398438 -31.160156 45.40625 -28.828125 44.90625 -27.421875 C 44.40625 -26.023438 44.15625 -24.921875 44.15625 -24.109375 C 44.15625 -23.304688 44.394531 -22.492188 44.875 -21.671875 C 45.351562 -20.847656 46.070312 -20.109375 47.03125 -19.453125 C 49.21875 -18.035156 52.460938 -17.328125 56.765625 -17.328125 C 61.066406 -17.328125 65.472656 -17.671875 69.984375 -18.359375 C 74.492188 -19.054688 78.628906 -19.976562 82.390625 -21.125 C 86.148438 -22.28125 89.503906 -23.59375 92.453125 -25.0625 C 95.410156 -26.539062 97.945312 -28.050781 100.0625 -29.59375 C 104.28125 -32.78125 106.640625 -35.71875 107.140625 -38.40625 C 107.253906 -39.019531 107.3125 -39.671875 107.3125 -40.359375 C 107.3125 -48.222656 98.90625 -53.804688 82.09375 -57.109375 C 75.644531 -58.410156 68.679688 -59.140625 61.203125 -59.296875 C 53.828125 -45.984375 49.390625 -37.691406 47.890625 -34.421875 Z M 47.890625 -34.421875 "/></g></g></g></svg>